<svg xmlns="http://www.w3.org/2000/svg" width="700" height="525" viewBox="0 0 700 525"><rect width="700" height="525" fill="#e4e8df"/><circle cx="350" cy="254" r="176" fill="#fff8e9"/><g transform="translate(170 65)"><rect x="75" y="180" width="212" height="161" rx="18" fill="#e5b7aa" stroke="#cb988e" stroke-width="4"/><path d="M75 217c20 15 34-17 53 0s38-12 57 1 39-15 57-1 29-1 45-3v-34H75z" fill="#fff0dd"/><path d="M167 181V68M196 181V45M226 181V70" stroke="#e9acac" stroke-width="12" stroke-linecap="round"/><g fill="#f6cf87"><path d="M167 38c-18 23-7 38 0 36 17-3 9-24 0-36zM196 18c-18 23-7 38 0 36 17-3 9-24 0-36zM226 40c-18 23-7 38 0 36 17-3 9-24 0-36z"/></g><g fill="#f5e8cb"><circle cx="119" cy="271" r="11"/><circle cx="174" cy="290" r="11"/><circle cx="238" cy="267" r="11"/></g></g><path d="m128 173 9-19m445 176 14 12m-50-191 13-10" stroke="#d7a5a8" stroke-width="7" stroke-linecap="round"/><text x="350" y="481" text-anchor="middle" fill="#886f6a" font-family="Georgia" font-size="24" font-style="italic">que sean muchos más ♡</text></svg>
