<svg xmlns="http://www.w3.org/2000/svg" width="700" height="525" viewBox="0 0 700 525"><rect width="700" height="525" fill="#ede1e6"/><circle cx="350" cy="260" r="178" fill="#fff9ef"/><g transform="translate(220 80)"><path d="M115 340c-24-97-42-157-73-205M115 340c46-92 69-153 124-202M115 340 125 84" stroke="#8f9f85" stroke-width="8" stroke-linecap="round"/><g fill="#e0a4ae"><ellipse cx="45" cy="138" rx="25" ry="47" transform="rotate(-42 45 138)"/><ellipse cx="45" cy="138" rx="47" ry="25" transform="rotate(-42 45 138)"/><circle cx="45" cy="138" r="16" fill="#f7d68f"/><ellipse cx="242" cy="143" rx="25" ry="47" transform="rotate(42 242 143)"/><ellipse cx="242" cy="143" rx="47" ry="25" transform="rotate(42 242 143)"/><circle cx="242" cy="143" r="16" fill="#f7d68f"/></g><g fill="#b7c6a6"><ellipse cx="125" cy="82" rx="26" ry="50"/><ellipse cx="125" cy="82" rx="50" ry="26"/><circle cx="125" cy="82" r="15" fill="#eac69a"/><ellipse cx="78" cy="245" rx="29" ry="14" transform="rotate(29 78 245)"/><ellipse cx="166" cy="244" rx="29" ry="14" transform="rotate(-32 166 244)"/></g><path d="M55 295h137l-20 56H76z" fill="#c69a92"/></g><text x="350" y="469" text-anchor="middle" fill="#8e707d" font-family="Georgia" font-size="25" font-style="italic">un ramito de momentos ✿</text></svg>
